<?xml version="1.0" encoding="iso-8859-1"?>
<!-- Uploaded to: SVG Repo, www.svgrepo.com, Generator: SVG Repo Mixer Tools -->
<svg fill="#000000" height="800px" width="800px" version="1.1" id="Layer_1" xmlns="http://www.w3.org/2000/svg" xmlns:xlink="http://www.w3.org/1999/xlink" 
	 viewBox="0 0 512.005 512.005" xml:space="preserve">
<g>
	<g>
		<g>
			<path d="M234.667,426.669c-2.816,0-5.675-0.192-8.469-0.555c-19.691-2.645-37.312-14.507-47.104-31.723L93.781,245.08
				c-8.491-14.827-10.688-32.085-6.208-48.597c4.501-16.491,15.168-30.229,30.016-38.72c9.643-5.504,20.629-8.427,31.723-8.427
				c22.891,0,44.181,12.352,55.573,32.213l43.776,76.629L445.419,61.421c6.848-6.848,15.04-11.733,23.915-14.869V21.336H0v469.333
				h469.333V218.499L279.915,407.917C267.883,420.013,251.797,426.669,234.667,426.669z"/>
			<path d="M505.749,91.587c-8.341-8.341-21.824-8.341-30.165,0L239.339,327.832l-71.488-125.077
				c-5.845-10.24-18.88-13.803-29.099-7.936c-10.24,5.845-13.803,18.88-7.936,29.099l85.333,149.333
				c3.285,5.781,9.109,9.685,15.68,10.56c0.939,0.128,1.899,0.192,2.837,0.192c5.632,0,11.072-2.219,15.083-6.251l256-256
				C514.091,113.411,514.091,99.928,505.749,91.587z"/>
		</g>
	</g>
</g>
</svg>