<svg width="32" height="32" viewBox="0 0 32 32" fill="none" xmlns="http://www.w3.org/2000/svg">
<path d="M22.5 0C23.6935 0 24.8381 0.474106 25.682 1.31802C26.5259 2.16193 27 3.30653 27 4.5V14.0055C25.8777 13.4721 24.6027 13.3541 23.4016 13.6723C22.2005 13.9906 21.1512 14.7246 20.4404 15.7437C19.7295 16.7628 19.4032 18.0011 19.5194 19.2382C19.6356 20.4753 20.1868 21.6311 21.075 22.5H20.6595C20.1133 22.4998 19.5725 22.6072 19.0678 22.8161C18.5632 23.0249 18.1046 23.3312 17.7184 23.7173C17.3321 24.1034 17.0257 24.5619 16.8167 25.0665C16.6076 25.571 16.5 26.1118 16.5 26.658V26.8125C16.5 26.8755 16.5 26.937 16.503 27H4.5C3.30653 27 2.16193 26.5259 1.31802 25.682C0.474106 24.8381 0 23.6935 0 22.5V4.5C0 3.30653 0.474106 2.16193 1.31802 1.31802C2.16193 0.474106 3.30653 0 4.5 0H22.5ZM20.205 7.455L10.5 17.16L6.795 13.455C6.58174 13.2563 6.29967 13.1481 6.00821 13.1532C5.71676 13.1584 5.43869 13.2764 5.23257 13.4826C5.02645 13.6887 4.90838 13.9668 4.90324 14.2582C4.89809 14.5497 5.00628 14.8317 5.205 15.045L9.705 19.545C9.91594 19.7557 10.2019 19.874 10.5 19.874C10.7981 19.874 11.0841 19.7557 11.295 19.545L21.795 9.045C21.9937 8.83174 22.1019 8.54967 22.0968 8.25821C22.0916 7.96676 21.9735 7.68869 21.7674 7.48257C21.5613 7.27645 21.2832 7.15838 20.9918 7.15324C20.7003 7.14809 20.4183 7.25628 20.205 7.455ZM28.5 18.75C28.5 19.7446 28.1049 20.6984 27.4016 21.4016C26.6984 22.1049 25.7446 22.5 24.75 22.5C23.7554 22.5 22.8016 22.1049 22.0983 21.4016C21.3951 20.6984 21 19.7446 21 18.75C21 17.7554 21.3951 16.8016 22.0983 16.0983C22.8016 15.3951 23.7554 15 24.75 15C25.7446 15 26.6984 15.3951 27.4016 16.0983C28.1049 16.8016 28.5 17.7554 28.5 18.75ZM31.5 26.8125C31.5 29.1465 29.571 31.5 24.75 31.5C19.929 31.5 18 29.1555 18 26.8125V26.658C18 25.188 19.191 24 20.6595 24H28.8405C30.3105 24 31.5 25.1895 31.5 26.658V26.8125Z" fill="white"/>
</svg>
