<svg width="30" height="31" viewBox="0 0 30 31" fill="none" xmlns="http://www.w3.org/2000/svg">
<path d="M29.1429 5.03572C29.1429 3.92749 28.7026 2.86466 27.919 2.08102C27.1353 1.29739 26.0725 0.857147 24.9643 0.857147H5.03571C3.92748 0.857147 2.86465 1.29739 2.08101 2.08102C1.29738 2.86466 0.85714 3.92749 0.85714 5.03572V24.9643C0.85714 26.0725 1.29738 27.1353 2.08101 27.919C2.86465 28.7026 3.92748 29.1429 5.03571 29.1429H12.7474L12.75 28.1786V27.2143H5.03571C4.43897 27.2143 3.86668 26.9772 3.44472 26.5553C3.02276 26.1333 2.78571 25.561 2.78571 24.9643V9.21815H27.2143V24.9643C27.2143 25.561 26.9772 26.1333 26.5553 26.5553C26.1333 26.9772 25.561 27.2143 24.9643 27.2143H17.25V29.1429H24.9643C26.0725 29.1429 27.1353 28.7026 27.919 27.919C28.7026 27.1353 29.1429 26.0725 29.1429 24.9643V5.03572ZM5.03571 2.78572H24.9643C26.2063 2.78572 27.2143 3.79372 27.2143 5.03572V7.28958H2.78571V5.03572C2.78571 3.79372 3.79371 2.78572 5.03571 2.78572ZM16.6071 14.0357C16.6071 14.462 16.4378 14.8707 16.1364 15.1721C15.835 15.4735 15.4262 15.6429 15 15.6429C14.5738 15.6429 14.165 15.4735 13.8636 15.1721C13.5622 14.8707 13.3929 14.462 13.3929 14.0357C13.3929 13.6095 13.5622 13.2007 13.8636 12.8993C14.165 12.5979 14.5738 12.4286 15 12.4286C15.4262 12.4286 15.835 12.5979 16.1364 12.8993C16.4378 13.2007 16.6071 13.6095 16.6071 14.0357ZM17.2526 23.1129C17.3461 23.203 17.4569 23.2733 17.5782 23.3195C17.6996 23.3658 17.829 23.387 17.9588 23.382C18.0886 23.377 18.216 23.3458 18.3334 23.2904C18.4509 23.2349 18.5559 23.1563 18.6422 23.0592C18.7285 22.9622 18.7943 22.8487 18.8357 22.7256C18.877 22.6025 18.8931 22.4723 18.8829 22.3428C18.8727 22.2133 18.8365 22.0873 18.7764 21.9721C18.7163 21.857 18.6336 21.7552 18.5331 21.6729L15.6403 19.1014C15.4638 18.9447 15.236 18.8582 15 18.8582C14.764 18.8582 14.5362 18.9447 14.3597 19.1014L11.4669 21.6729C11.3664 21.7552 11.2837 21.857 11.2236 21.9721C11.1635 22.0873 11.1272 22.2133 11.1171 22.3428C11.1069 22.4723 11.123 22.6025 11.1643 22.7256C11.2057 22.8487 11.2715 22.9622 11.3578 23.0592C11.4441 23.1563 11.5491 23.2349 11.6666 23.2904C11.784 23.3458 11.9114 23.377 12.0412 23.382C12.171 23.387 12.3004 23.3658 12.4218 23.3195C12.5431 23.2733 12.6539 23.203 12.7474 23.1129L14.0357 21.9686V29.4643C14.0357 29.72 14.1373 29.9653 14.3181 30.1461C14.499 30.327 14.7443 30.4286 15 30.4286C15.2557 30.4286 15.501 30.327 15.6818 30.1461C15.8627 29.9653 15.9643 29.72 15.9643 29.4643V21.9686L17.2526 23.1129Z" fill="white" fill-opacity="0.8"/>
</svg>
